<svg 
 xmlns="http://www.w3.org/2000/svg"
 xmlns:xlink="http://www.w3.org/1999/xlink"
 width="0.364in" height="0.42in">
<defs>
<linearGradient id="PSgrad_0" x1="0%" x2="0%" y1="100%" y2="0%">
  <stop offset="0%" stop-color="rgb(18,214,223)" stop-opacity="1" />
  <stop offset="100%" stop-color="rgb(247,15,255)" stop-opacity="1" />
</linearGradient>

</defs>
<path fill-rule="evenodd"  stroke-width="0.15px" stroke-linecap="round" stroke-linejoin="round" fill="url(#PSgrad_0)"
 d="M3.075,1.075 L7.075,1.075 L7.075,2.075 L8.075,2.075 L8.075,3.075 L9.075,3.075 L9.075,7.075 L8.075,7.075 L8.075,10.075 L9.075,10.075 L9.075,11.075 L10.075,11.075 L10.075,12.075 L11.075,12.075 L11.075,13.075 L12.075,13.075 L12.075,14.075 L14.075,14.075 L14.075,15.075 L18.075,15.075 L18.075,14.075 L19.075,14.075 L19.075,13.075 L23.075,13.075 L23.075,14.075 L24.075,14.075 L24.075,15.075 L25.075,15.075 L25.075,19.075 L24.075,19.075 L24.075,20.075 L23.075,20.075 L23.075,21.075 L21.075,21.075 L19.075,21.075 L19.075,20.075 L18.075,20.075 L18.075,19.075 L13.075,19.075 L13.075,18.075 L11.075,18.075 L11.075,17.075 L9.075,17.075 L9.075,16.075 L8.075,16.075 L8.075,15.075 L7.075,15.075 L7.075,22.075 L8.075,22.075 L8.075,23.075 L9.075,23.075 L9.075,27.075 L8.075,27.075 L8.075,28.075 L7.075,28.075 L7.075,29.075 L3.075,29.075 L3.075,28.075 L2.075,28.075 L2.075,27.075 L1.075,27.075 L1.075,23.075 L2.075,23.075 L2.075,22.075 L3.075,22.075 L3.075,8.075 L2.075,8.075 L2.075,7.075 L1.075,7.075 L1.075,3.075 L2.075,3.075 L2.075,2.075 L3.075,2.075 L3.075,1.075 Z"/>
</svg>
